<svg width="49" height="49" viewBox="0 0 49 49" fill="none" xmlns="http://www.w3.org/2000/svg">
<path d="M38.7917 8.16671H36.75C35.1255 8.16671 33.5681 8.81248 32.4194 9.96114C31.2708 11.1098 30.625 12.6673 30.625 14.2917V16.5387C31.292 16.4026 31.9758 16.3334 32.6667 16.3334C34.2911 16.3334 35.8486 15.6876 36.9972 14.5389C38.1459 13.3903 38.7917 11.8328 38.7917 10.2084V8.16671ZM13.5579 18.4089C12.4006 18.5133 11.2832 18.8626 10.2781 19.4298C10.4273 20.5746 10.8174 21.6788 11.4285 22.6677C12.2259 23.9579 13.3658 25.0021 14.7223 25.6804C16.0789 26.3586 17.5982 26.644 19.1087 26.5078C20.2658 26.4034 21.3817 26.0519 22.3866 25.485C22.2372 24.3409 21.8489 23.2373 21.2381 22.249C20.4408 20.9589 19.3009 19.9146 17.9443 19.2364C16.5878 18.5581 15.0685 18.2727 13.5579 18.4089ZM42.875 10.2084C42.875 12.9158 41.7987 15.5116 39.8843 17.426C37.9698 19.3404 35.3741 20.4167 32.6667 20.4167C31.0422 20.4167 29.4848 21.0625 28.3361 22.2111C27.1874 23.3598 26.5417 24.9173 26.5417 26.5417C26.5417 28.219 26.9468 29.4697 27.4568 30.9999C27.9675 32.5319 28.5833 34.3442 28.5833 36.75C28.5833 38.1505 28.3405 39.5299 27.8795 40.8334H38.7917C39.9192 40.8334 40.8333 41.7475 40.8333 42.875C40.8333 44.0026 39.9192 44.9167 38.7917 44.9167H10.2083C9.08075 44.9167 8.16667 44.0026 8.16667 42.875C8.16667 41.7475 9.08075 40.8334 10.2083 40.8334H23.3994C24.1144 39.5962 24.5 38.1903 24.5 36.75C24.5 35.0728 24.0949 33.822 23.5848 32.2919C23.3325 31.5349 23.0536 30.7092 22.8372 29.7777C21.7642 30.1975 20.6341 30.4707 19.4756 30.5752C17.2098 30.7795 14.9308 30.3485 12.896 29.3311C10.8616 28.3137 9.15118 26.7499 7.95532 24.8151C6.7593 22.8799 6.125 20.65 6.125 18.375C6.125 17.7324 6.42836 17.1277 6.94246 16.7421C8.76224 15.3774 10.9256 14.5459 13.1911 14.3416C15.4569 14.1372 17.7359 14.5683 19.7707 15.5857C21.805 16.6031 23.5155 18.1668 24.7113 20.1017C24.7162 20.1095 24.7205 20.1178 24.7253 20.1256C24.9507 19.8467 25.1931 19.58 25.4491 19.3241C25.7924 18.9808 26.1578 18.665 26.5417 18.377V14.2917C26.5417 11.5843 27.618 8.98853 29.5324 7.0741C31.4468 5.15966 34.0426 4.08337 36.75 4.08337H39.8125C40.6247 4.08337 41.4035 4.40626 41.9778 4.98059C42.5521 5.55492 42.875 6.33365 42.875 7.14587V10.2084Z" fill="#AFD196"/>
</svg>
