<svg width="261" height="49" viewBox="0 0 261 49" fill="none" xmlns="http://www.w3.org/2000/svg">
<path d="M38.7917 8.16671H36.75C35.1255 8.16671 33.5681 8.81248 32.4194 9.96114C31.2708 11.1098 30.625 12.6673 30.625 14.2917V16.5387C31.292 16.4026 31.9758 16.3334 32.6667 16.3334C34.2911 16.3334 35.8486 15.6876 36.9972 14.5389C38.1459 13.3903 38.7917 11.8328 38.7917 10.2084V8.16671ZM13.5579 18.4089C12.4006 18.5133 11.2832 18.8626 10.2781 19.4298C10.4273 20.5746 10.8174 21.6788 11.4285 22.6677C12.2259 23.9579 13.3658 25.0021 14.7223 25.6804C16.0789 26.3586 17.5982 26.644 19.1087 26.5078C20.2658 26.4034 21.3817 26.0519 22.3866 25.485C22.2372 24.3409 21.8489 23.2373 21.2381 22.249C20.4408 20.9589 19.3009 19.9146 17.9443 19.2364C16.5878 18.5581 15.0685 18.2727 13.5579 18.4089ZM42.875 10.2084C42.875 12.9158 41.7987 15.5116 39.8843 17.426C37.9698 19.3404 35.3741 20.4167 32.6667 20.4167C31.0422 20.4167 29.4848 21.0625 28.3361 22.2111C27.1874 23.3598 26.5417 24.9173 26.5417 26.5417C26.5417 28.219 26.9468 29.4697 27.4568 30.9999C27.9675 32.5319 28.5833 34.3442 28.5833 36.75C28.5833 38.1505 28.3405 39.5299 27.8795 40.8334H38.7917C39.9193 40.8334 40.8333 41.7475 40.8333 42.875C40.8333 44.0026 39.9193 44.9167 38.7917 44.9167H10.2083C9.08075 44.9167 8.16667 44.0026 8.16667 42.875C8.16667 41.7475 9.08075 40.8334 10.2083 40.8334H23.3994C24.1144 39.5962 24.5 38.1903 24.5 36.75C24.5 35.0728 24.0949 33.822 23.5848 32.2919C23.3325 31.5349 23.0536 30.7092 22.8372 29.7777C21.7642 30.1975 20.6341 30.4707 19.4756 30.5752C17.2098 30.7795 14.9308 30.3484 12.896 29.3311C10.8616 28.3137 9.15118 26.7499 7.95532 24.8151C6.7593 22.8799 6.125 20.65 6.125 18.375C6.125 17.7324 6.42836 17.1277 6.94246 16.7421C8.76224 15.3774 10.9256 14.5459 13.1911 14.3416C15.4569 14.1372 17.7359 14.5683 19.7707 15.5857C21.805 16.6031 23.5155 18.1668 24.7113 20.1017C24.7162 20.1095 24.7205 20.1178 24.7253 20.1256C24.9507 19.8467 25.1931 19.58 25.4491 19.3241C25.7924 18.9808 26.1578 18.665 26.5417 18.377V14.2917C26.5417 11.5843 27.618 8.98853 29.5324 7.0741C31.4468 5.15966 34.0426 4.08337 36.75 4.08337H39.8125C40.6247 4.08337 41.4035 4.40626 41.9778 4.98059C42.5521 5.55492 42.875 6.33365 42.875 7.14587V10.2084Z" fill="#AFD196"/>
<path d="M78.4958 41.48C76.4478 41.48 74.6878 41.144 73.2158 40.472C71.7438 39.8 70.5278 38.904 69.5678 37.784C68.6398 36.632 67.9518 35.336 67.5038 33.896C67.0558 32.424 66.8318 30.888 66.8318 29.288C66.8318 27.752 67.0558 26.248 67.5038 24.776C67.9518 23.304 68.6238 21.976 69.5198 20.792C70.4158 19.608 71.5678 18.664 72.9758 17.96C74.4158 17.224 76.1278 16.856 78.1118 16.856C79.9678 16.856 81.5838 17.176 82.9598 17.816C84.3358 18.424 85.4718 19.288 86.3678 20.408C87.2638 21.496 87.9358 22.776 88.3838 24.248C88.8638 25.72 89.1038 27.288 89.1038 28.952C89.1038 29.176 89.0878 29.496 89.0558 29.912C89.0558 30.296 89.0238 30.712 88.9598 31.16H72.7838C72.9438 32.856 73.5678 34.136 74.6558 35C75.7758 35.864 77.1678 36.296 78.8318 36.296C80.0478 36.296 81.2318 36.088 82.3838 35.672C83.5358 35.224 84.5598 34.6 85.4558 33.8L88.4318 37.832C87.3118 38.696 86.2558 39.4 85.2638 39.944C84.2718 40.488 83.2318 40.872 82.1438 41.096C81.0878 41.352 79.8718 41.48 78.4958 41.48ZM83.1998 28.184C83.2638 27.928 83.3118 27.672 83.3438 27.416C83.4078 27.16 83.4398 26.92 83.4398 26.696C83.4398 26.024 83.3118 25.4 83.0558 24.824C82.7998 24.216 82.4478 23.688 81.9998 23.24C81.5518 22.792 81.0078 22.456 80.3678 22.232C79.7598 21.976 79.0558 21.848 78.2558 21.848C77.0718 21.848 76.0798 22.088 75.2798 22.568C74.4798 23.048 73.8718 23.672 73.4558 24.44C73.0718 25.176 72.8318 25.944 72.7358 26.744H85.2158L83.1998 28.184ZM104.321 41.48C102.401 41.48 100.721 41.144 99.2806 40.472C97.8726 39.768 96.6726 38.84 95.6806 37.688C94.7206 36.536 94.0006 35.224 93.5206 33.752C93.0406 32.28 92.8006 30.744 92.8006 29.144C92.8006 27.576 93.0406 26.056 93.5206 24.584C94.0006 23.112 94.7206 21.8 95.6806 20.648C96.6726 19.496 97.8726 18.584 99.2806 17.912C100.721 17.208 102.401 16.856 104.321 16.856C106.721 16.856 108.801 17.432 110.561 18.584C112.321 19.736 113.633 21.48 114.497 23.816L109.313 25.88C108.929 24.76 108.337 23.848 107.537 23.144C106.769 22.408 105.697 22.04 104.321 22.04C103.041 22.04 101.985 22.392 101.153 23.096C100.321 23.768 99.7126 24.648 99.3286 25.736C98.9446 26.824 98.7526 27.96 98.7526 29.144C98.7526 30.328 98.9446 31.48 99.3286 32.6C99.7126 33.688 100.321 34.584 101.153 35.288C101.985 35.96 103.041 36.296 104.321 36.296C105.697 36.296 106.769 35.944 107.537 35.24C108.337 34.504 108.929 33.56 109.313 32.408L114.497 34.472C113.633 36.84 112.321 38.6 110.561 39.752C108.801 40.904 106.721 41.48 104.321 41.48ZM129.831 41.48C127.527 41.48 125.479 40.952 123.687 39.896C121.895 38.84 120.471 37.384 119.415 35.528C118.391 33.64 117.879 31.512 117.879 29.144C117.879 26.744 118.391 24.632 119.415 22.808C120.439 20.952 121.847 19.496 123.639 18.44C125.463 17.384 127.527 16.856 129.831 16.856C132.103 16.856 134.135 17.384 135.927 18.44C137.719 19.496 139.127 20.952 140.151 22.808C141.175 24.632 141.687 26.744 141.687 29.144C141.687 31.512 141.175 33.624 140.151 35.48C139.127 37.336 137.719 38.808 135.927 39.896C134.135 40.952 132.103 41.48 129.831 41.48ZM129.831 36.248C131.047 36.248 132.087 35.96 132.951 35.384C133.847 34.808 134.519 33.992 134.967 32.936C135.447 31.88 135.687 30.616 135.687 29.144C135.687 27.64 135.447 26.376 134.967 25.352C134.519 24.296 133.847 23.496 132.951 22.952C132.087 22.376 131.047 22.088 129.831 22.088C128.583 22.088 127.511 22.376 126.615 22.952C125.719 23.496 125.031 24.296 124.551 25.352C124.071 26.376 123.831 27.64 123.831 29.144C123.831 30.616 124.071 31.88 124.551 32.936C125.031 33.992 125.719 34.808 126.615 35.384C127.511 35.96 128.583 36.248 129.831 36.248Z" fill="#AFD196"/>
<path d="M147.219 41V17.336H150.291V22.856L149.571 23.096C149.987 21.784 150.579 20.68 151.347 19.784C152.115 18.888 153.027 18.2 154.083 17.72C155.171 17.24 156.371 17 157.683 17C160.243 17 162.243 17.768 163.683 19.304C165.123 20.808 165.843 23.112 165.843 26.216V41H162.819V27.32C162.819 24.696 162.323 22.76 161.331 21.512C160.371 20.264 158.915 19.64 156.963 19.64C155.619 19.64 154.435 19.976 153.411 20.648C152.419 21.288 151.651 22.328 151.107 23.768C150.563 25.176 150.291 27.016 150.291 29.288V41H147.219ZM182.51 41.336C180.75 41.336 179.182 41.032 177.806 40.424C176.462 39.816 175.342 38.968 174.446 37.88C173.55 36.792 172.862 35.512 172.382 34.04C171.934 32.568 171.71 31 171.71 29.336C171.71 27.64 171.934 26.056 172.382 24.584C172.83 23.08 173.486 21.768 174.35 20.648C175.246 19.496 176.334 18.6 177.614 17.96C178.926 17.32 180.43 17 182.126 17C183.918 17 185.454 17.32 186.734 17.96C188.046 18.568 189.102 19.416 189.902 20.504C190.734 21.56 191.342 22.728 191.726 24.008C192.142 25.288 192.35 26.584 192.35 27.896C192.35 28.152 192.334 28.488 192.302 28.904C192.302 29.32 192.27 29.672 192.206 29.96H174.686C174.75 32.68 175.47 34.792 176.846 36.296C178.254 37.8 180.142 38.552 182.51 38.552C184.014 38.552 185.294 38.328 186.35 37.88C187.438 37.4 188.478 36.616 189.47 35.528L191.63 37.448C190.734 38.376 189.822 39.128 188.894 39.704C187.966 40.248 186.974 40.664 185.918 40.952C184.894 41.208 183.758 41.336 182.51 41.336ZM189.326 28.424C189.39 28.168 189.422 27.912 189.422 27.656C189.422 27.368 189.422 27.096 189.422 26.84C189.422 26.008 189.278 25.16 188.99 24.296C188.734 23.432 188.318 22.648 187.742 21.944C187.166 21.24 186.414 20.664 185.486 20.216C184.558 19.768 183.454 19.544 182.174 19.544C180.702 19.544 179.406 19.912 178.286 20.648C177.198 21.384 176.35 22.36 175.742 23.576C175.134 24.792 174.782 26.168 174.686 27.704H190.334L189.326 28.424ZM208.053 41.336C206.389 41.336 204.901 41.032 203.589 40.424C202.277 39.784 201.157 38.904 200.229 37.784C199.333 36.664 198.645 35.368 198.165 33.896C197.685 32.424 197.445 30.84 197.445 29.144C197.445 27.48 197.685 25.912 198.165 24.44C198.645 22.968 199.333 21.672 200.229 20.552C201.157 19.432 202.277 18.568 203.589 17.96C204.901 17.32 206.389 17 208.053 17C210.197 17 212.085 17.528 213.717 18.584C215.349 19.64 216.565 21.256 217.365 23.432L214.629 24.488C214.117 22.984 213.301 21.8 212.181 20.936C211.061 20.072 209.685 19.64 208.053 19.64C206.325 19.64 204.901 20.088 203.781 20.984C202.661 21.88 201.813 23.048 201.237 24.488C200.693 25.928 200.421 27.48 200.421 29.144C200.421 30.808 200.693 32.376 201.237 33.848C201.813 35.288 202.661 36.456 203.781 37.352C204.901 38.248 206.325 38.696 208.053 38.696C209.685 38.696 211.061 38.264 212.181 37.4C213.301 36.536 214.117 35.336 214.629 33.8L217.365 34.856C216.597 37 215.397 38.616 213.765 39.704C212.133 40.792 210.229 41.336 208.053 41.336ZM230.265 41.336C229.209 41.336 228.281 41.128 227.481 40.712C226.681 40.296 226.057 39.656 225.609 38.792C225.193 37.896 224.985 36.776 224.985 35.432V10.568L228.057 8.792V34.712C228.057 35.992 228.265 37 228.681 37.736C229.129 38.44 229.897 38.792 230.985 38.792C231.369 38.792 231.785 38.76 232.233 38.696C232.681 38.6 233.161 38.488 233.673 38.36V40.76C233.097 40.952 232.521 41.096 231.945 41.192C231.369 41.288 230.809 41.336 230.265 41.336ZM219.753 19.736V17.336H233.673V19.736H219.753ZM254.747 41L254.555 35.624V26.264C254.555 24.088 253.995 22.44 252.875 21.32C251.755 20.2 250.107 19.64 247.931 19.64C246.523 19.64 245.227 19.928 244.043 20.504C242.859 21.048 241.739 21.992 240.683 23.336L238.475 21.464C239.755 19.928 241.179 18.808 242.747 18.104C244.347 17.368 246.139 17 248.123 17C251.131 17 253.451 17.8 255.083 19.4C256.715 20.968 257.531 23.256 257.531 26.264V41H254.747ZM246.395 41.336C244.635 41.336 243.099 41.032 241.787 40.424C240.507 39.816 239.515 38.984 238.811 37.928C238.139 36.84 237.803 35.576 237.803 34.136C237.803 32.856 238.043 31.784 238.523 30.92C239.035 30.024 239.691 29.32 240.491 28.808C241.355 28.232 242.331 27.832 243.419 27.608C244.539 27.384 245.739 27.272 247.019 27.272H254.843V29.576H247.403C246.475 29.576 245.563 29.656 244.667 29.816C243.803 29.976 243.067 30.296 242.459 30.776C241.947 31.128 241.547 31.592 241.259 32.168C241.003 32.712 240.875 33.368 240.875 34.136C240.875 35.576 241.387 36.728 242.411 37.592C243.467 38.424 244.891 38.84 246.683 38.84C248.123 38.84 249.435 38.504 250.619 37.832C251.803 37.128 252.747 36.168 253.451 34.952C254.187 33.736 254.555 32.376 254.555 30.872L255.851 32.312C255.691 34.104 255.179 35.688 254.315 37.064C253.451 38.44 252.331 39.496 250.955 40.232C249.579 40.968 248.059 41.336 246.395 41.336Z" fill="#26413C"/>
</svg>
