<svg width="191" height="33" viewBox="0 0 191 33" fill="none" xmlns="http://www.w3.org/2000/svg">
<path d="M11.664 32.688C9.61603 32.688 7.85603 32.352 6.38403 31.68C4.91203 31.008 3.69603 30.112 2.73603 28.992C1.80803 27.84 1.12003 26.544 0.672025 25.104C0.224025 23.632 2.55108e-05 22.096 2.55108e-05 20.496C2.55108e-05 18.96 0.224025 17.456 0.672025 15.984C1.12003 14.512 1.79203 13.184 2.68803 12C3.58403 10.816 4.73603 9.87201 6.14403 9.16801C7.58403 8.43201 9.29603 8.06401 11.28 8.06401C13.136 8.06401 14.752 8.38401 16.128 9.02401C17.504 9.63201 18.64 10.496 19.536 11.616C20.432 12.704 21.104 13.984 21.552 15.456C22.032 16.928 22.272 18.496 22.272 20.16C22.272 20.384 22.256 20.704 22.224 21.12C22.224 21.504 22.192 21.92 22.128 22.368H5.95203C6.11203 24.064 6.73603 25.344 7.82403 26.208C8.94403 27.072 10.336 27.504 12 27.504C13.216 27.504 14.4 27.296 15.552 26.88C16.704 26.432 17.728 25.808 18.624 25.008L21.6 29.04C20.48 29.904 19.424 30.608 18.432 31.152C17.44 31.696 16.4 32.08 15.312 32.304C14.256 32.56 13.04 32.688 11.664 32.688ZM16.368 19.392C16.432 19.136 16.48 18.88 16.512 18.624C16.576 18.368 16.608 18.128 16.608 17.904C16.608 17.232 16.48 16.608 16.224 16.032C15.968 15.424 15.616 14.896 15.168 14.448C14.72 14 14.176 13.664 13.536 13.44C12.928 13.184 12.224 13.056 11.424 13.056C10.24 13.056 9.24803 13.296 8.44803 13.776C7.64803 14.256 7.04003 14.88 6.62403 15.648C6.24003 16.384 6.00003 17.152 5.90403 17.952H18.384L16.368 19.392ZM37.4888 32.688C35.5688 32.688 33.8888 32.352 32.4488 31.68C31.0408 30.976 29.8408 30.048 28.8488 28.896C27.8888 27.744 27.1688 26.432 26.6888 24.96C26.2088 23.488 25.9688 21.952 25.9688 20.352C25.9688 18.784 26.2088 17.264 26.6888 15.792C27.1688 14.32 27.8888 13.008 28.8488 11.856C29.8408 10.704 31.0408 9.79201 32.4488 9.12001C33.8888 8.41601 35.5688 8.06401 37.4888 8.06401C39.8888 8.06401 41.9688 8.64001 43.7288 9.79201C45.4888 10.944 46.8008 12.688 47.6648 15.024L42.4808 17.088C42.0968 15.968 41.5048 15.056 40.7048 14.352C39.9368 13.616 38.8648 13.248 37.4888 13.248C36.2088 13.248 35.1528 13.6 34.3208 14.304C33.4888 14.976 32.8808 15.856 32.4968 16.944C32.1128 18.032 31.9208 19.168 31.9208 20.352C31.9208 21.536 32.1128 22.688 32.4968 23.808C32.8808 24.896 33.4888 25.792 34.3208 26.496C35.1528 27.168 36.2088 27.504 37.4888 27.504C38.8648 27.504 39.9368 27.152 40.7048 26.448C41.5048 25.712 42.0968 24.768 42.4808 23.616L47.6648 25.68C46.8008 28.048 45.4888 29.808 43.7288 30.96C41.9688 32.112 39.8888 32.688 37.4888 32.688ZM62.9989 32.688C60.6949 32.688 58.6469 32.16 56.8549 31.104C55.0629 30.048 53.6389 28.592 52.5829 26.736C51.5589 24.848 51.0469 22.72 51.0469 20.352C51.0469 17.952 51.5589 15.84 52.5829 14.016C53.6069 12.16 55.0149 10.704 56.8069 9.64801C58.6309 8.59201 60.6949 8.06401 62.9989 8.06401C65.2709 8.06401 67.3029 8.59201 69.0949 9.64801C70.8869 10.704 72.2949 12.16 73.3189 14.016C74.3429 15.84 74.8549 17.952 74.8549 20.352C74.8549 22.72 74.3429 24.832 73.3189 26.688C72.2949 28.544 70.8869 30.016 69.0949 31.104C67.3029 32.16 65.2709 32.688 62.9989 32.688ZM62.9989 27.456C64.2149 27.456 65.2549 27.168 66.1189 26.592C67.0149 26.016 67.6869 25.2 68.1349 24.144C68.6149 23.088 68.8549 21.824 68.8549 20.352C68.8549 18.848 68.6149 17.584 68.1349 16.56C67.6869 15.504 67.0149 14.704 66.1189 14.16C65.2549 13.584 64.2149 13.296 62.9989 13.296C61.7509 13.296 60.6789 13.584 59.7829 14.16C58.8869 14.704 58.1989 15.504 57.7189 16.56C57.2389 17.584 56.9989 18.848 56.9989 20.352C56.9989 21.824 57.2389 23.088 57.7189 24.144C58.1989 25.2 58.8869 26.016 59.7829 26.592C60.6789 27.168 61.7509 27.456 62.9989 27.456Z" fill="#AFD196"/>
<path d="M80.3877 32.208V8.54401H83.4597V14.064L82.7397 14.304C83.1557 12.992 83.7477 11.888 84.5157 10.992C85.2837 10.096 86.1957 9.40801 87.2517 8.92801C88.3397 8.44801 89.5397 8.20801 90.8517 8.20801C93.4117 8.20801 95.4117 8.97601 96.8517 10.512C98.2917 12.016 99.0117 14.32 99.0117 17.424V32.208H95.9877V18.528C95.9877 15.904 95.4917 13.968 94.4997 12.72C93.5397 11.472 92.0837 10.848 90.1317 10.848C88.7877 10.848 87.6037 11.184 86.5797 11.856C85.5877 12.496 84.8197 13.536 84.2757 14.976C83.7317 16.384 83.4597 18.224 83.4597 20.496V32.208H80.3877ZM115.679 32.544C113.919 32.544 112.351 32.24 110.975 31.632C109.631 31.024 108.511 30.176 107.615 29.088C106.719 28 106.031 26.72 105.551 25.248C105.103 23.776 104.879 22.208 104.879 20.544C104.879 18.848 105.103 17.264 105.551 15.792C105.999 14.288 106.655 12.976 107.519 11.856C108.415 10.704 109.503 9.80801 110.783 9.16801C112.095 8.52801 113.599 8.20801 115.295 8.20801C117.087 8.20801 118.623 8.52801 119.903 9.16801C121.215 9.77601 122.271 10.624 123.071 11.712C123.903 12.768 124.511 13.936 124.895 15.216C125.311 16.496 125.519 17.792 125.519 19.104C125.519 19.36 125.503 19.696 125.471 20.112C125.471 20.528 125.439 20.88 125.375 21.168H107.855C107.919 23.888 108.639 26 110.015 27.504C111.423 29.008 113.311 29.76 115.679 29.76C117.183 29.76 118.463 29.536 119.519 29.088C120.607 28.608 121.647 27.824 122.639 26.736L124.799 28.656C123.903 29.584 122.991 30.336 122.063 30.912C121.135 31.456 120.143 31.872 119.087 32.16C118.063 32.416 116.927 32.544 115.679 32.544ZM122.495 19.632C122.559 19.376 122.591 19.12 122.591 18.864C122.591 18.576 122.591 18.304 122.591 18.048C122.591 17.216 122.447 16.368 122.159 15.504C121.903 14.64 121.487 13.856 120.911 13.152C120.335 12.448 119.583 11.872 118.655 11.424C117.727 10.976 116.623 10.752 115.343 10.752C113.871 10.752 112.575 11.12 111.455 11.856C110.367 12.592 109.519 13.568 108.911 14.784C108.303 16 107.951 17.376 107.855 18.912H123.503L122.495 19.632ZM141.221 32.544C139.557 32.544 138.069 32.24 136.757 31.632C135.445 30.992 134.325 30.112 133.397 28.992C132.501 27.872 131.813 26.576 131.333 25.104C130.853 23.632 130.613 22.048 130.613 20.352C130.613 18.688 130.853 17.12 131.333 15.648C131.813 14.176 132.501 12.88 133.397 11.76C134.325 10.64 135.445 9.77601 136.757 9.16801C138.069 8.52801 139.557 8.20801 141.221 8.20801C143.365 8.20801 145.253 8.73601 146.885 9.79201C148.517 10.848 149.733 12.464 150.533 14.64L147.797 15.696C147.285 14.192 146.469 13.008 145.349 12.144C144.229 11.28 142.853 10.848 141.221 10.848C139.493 10.848 138.069 11.296 136.949 12.192C135.829 13.088 134.981 14.256 134.405 15.696C133.861 17.136 133.589 18.688 133.589 20.352C133.589 22.016 133.861 23.584 134.405 25.056C134.981 26.496 135.829 27.664 136.949 28.56C138.069 29.456 139.493 29.904 141.221 29.904C142.853 29.904 144.229 29.472 145.349 28.608C146.469 27.744 147.285 26.544 147.797 25.008L150.533 26.064C149.765 28.208 148.565 29.824 146.933 30.912C145.301 32 143.397 32.544 141.221 32.544ZM163.434 32.544C162.378 32.544 161.45 32.336 160.65 31.92C159.85 31.504 159.226 30.864 158.778 30C158.362 29.104 158.154 27.984 158.154 26.64V1.77601L161.226 7.62939e-06V25.92C161.226 27.2 161.434 28.208 161.85 28.944C162.298 29.648 163.066 30 164.154 30C164.538 30 164.954 29.968 165.402 29.904C165.85 29.808 166.33 29.696 166.842 29.568V31.968C166.266 32.16 165.69 32.304 165.114 32.4C164.538 32.496 163.978 32.544 163.434 32.544ZM152.922 10.944V8.54401H166.842V10.944H152.922ZM187.915 32.208L187.723 26.832V17.472C187.723 15.296 187.163 13.648 186.043 12.528C184.923 11.408 183.275 10.848 181.099 10.848C179.691 10.848 178.395 11.136 177.211 11.712C176.027 12.256 174.907 13.2 173.851 14.544L171.643 12.672C172.923 11.136 174.347 10.016 175.915 9.31201C177.515 8.57601 179.307 8.20801 181.291 8.20801C184.299 8.20801 186.619 9.00801 188.251 10.608C189.883 12.176 190.699 14.464 190.699 17.472V32.208H187.915ZM179.563 32.544C177.803 32.544 176.267 32.24 174.955 31.632C173.675 31.024 172.683 30.192 171.979 29.136C171.307 28.048 170.971 26.784 170.971 25.344C170.971 24.064 171.211 22.992 171.691 22.128C172.203 21.232 172.859 20.528 173.659 20.016C174.523 19.44 175.499 19.04 176.587 18.816C177.707 18.592 178.907 18.48 180.187 18.48H188.011V20.784H180.571C179.643 20.784 178.731 20.864 177.835 21.024C176.971 21.184 176.235 21.504 175.627 21.984C175.115 22.336 174.715 22.8 174.427 23.376C174.171 23.92 174.043 24.576 174.043 25.344C174.043 26.784 174.555 27.936 175.579 28.8C176.635 29.632 178.059 30.048 179.851 30.048C181.291 30.048 182.603 29.712 183.787 29.04C184.971 28.336 185.915 27.376 186.619 26.16C187.355 24.944 187.723 23.584 187.723 22.08L189.019 23.52C188.859 25.312 188.347 26.896 187.483 28.272C186.619 29.648 185.499 30.704 184.123 31.44C182.747 32.176 181.227 32.544 179.563 32.544Z" fill="#26413C"/>
</svg>
