<svg width="64" height="64" viewBox="0 0 64 64" fill="none" xmlns="http://www.w3.org/2000/svg">
    <path
        d="M15.5999 45.5997C17.8666 43.8663 20.3999 42.4997 23.1999 41.4997C25.9999 40.4997 28.9333 39.9997 31.9999 39.9997C35.0666 39.9997 37.9999 40.4997 40.7999 41.4997C43.5999 42.4997 46.1332 43.8663 48.3999 45.5997C49.9555 43.7775 51.1666 41.7108 52.0333 39.3997C52.8999 37.0886 53.3332 34.6219 53.3332 31.9997C53.3332 26.0886 51.2555 21.0552 47.0999 16.8997C42.9444 12.7441 37.911 10.6663 31.9999 10.6663C26.0888 10.6663 21.0555 12.7441 16.8999 16.8997C12.7444 21.0552 10.6666 26.0886 10.6666 31.9997C10.6666 34.6219 11.0999 37.0886 11.9666 39.3997C12.8333 41.7108 14.0444 43.7775 15.5999 45.5997ZM31.9999 34.6663C29.3777 34.6663 27.1666 33.7663 25.3666 31.9663C23.5666 30.1663 22.6666 27.9552 22.6666 25.333C22.6666 22.7108 23.5666 20.4997 25.3666 18.6997C27.1666 16.8997 29.3777 15.9997 31.9999 15.9997C34.6221 15.9997 36.8333 16.8997 38.6333 18.6997C40.4333 20.4997 41.3332 22.7108 41.3332 25.333C41.3332 27.9552 40.4333 30.1663 38.6333 31.9663C36.8333 33.7663 34.6221 34.6663 31.9999 34.6663ZM31.9999 58.6663C28.311 58.6663 24.8444 57.9663 21.5999 56.5663C18.3555 55.1663 15.5333 53.2663 13.1333 50.8663C10.7333 48.4663 8.83325 45.6441 7.43325 42.3997C6.03325 39.1552 5.33325 35.6886 5.33325 31.9997C5.33325 28.3108 6.03325 24.8441 7.43325 21.5997C8.83325 18.3552 10.7333 15.533 13.1333 13.133C15.5333 10.733 18.3555 8.83301 21.5999 7.43301C24.8444 6.03301 28.311 5.33301 31.9999 5.33301C35.6888 5.33301 39.1555 6.03301 42.3999 7.43301C45.6444 8.83301 48.4666 10.733 50.8666 13.133C53.2666 15.533 55.1666 18.3552 56.5666 21.5997C57.9666 24.8441 58.6666 28.3108 58.6666 31.9997C58.6666 35.6886 57.9666 39.1552 56.5666 42.3997C55.1666 45.6441 53.2666 48.4663 50.8666 50.8663C48.4666 53.2663 45.6444 55.1663 42.3999 56.5663C39.1555 57.9663 35.6888 58.6663 31.9999 58.6663Z"
    />
</svg>