<svg width="64" height="64" viewBox="0 0 64 64" fill="none" xmlns="http://www.w3.org/2000/svg">
    <path
        d="M2.66675 50.667V42.667C2.66675 41.1559 3.18897 39.8892 4.23341 38.867C5.27786 37.8448 6.53341 37.3337 8.00008 37.3337H16.7334C17.6223 37.3337 18.4667 37.5559 19.2667 38.0003C20.0667 38.4448 20.7112 39.0448 21.2001 39.8003C22.489 41.5337 24.0779 42.8892 25.9667 43.867C27.8556 44.8448 29.8667 45.3337 32.0001 45.3337C34.1779 45.3337 36.2112 44.8448 38.1001 43.867C39.989 42.8892 41.5556 41.5337 42.8001 39.8003C43.3779 39.0448 44.0556 38.4448 44.8334 38.0003C45.6112 37.5559 46.4223 37.3337 47.2668 37.3337H56.0001C57.5112 37.3337 58.7779 37.8448 59.8001 38.867C60.8223 39.8892 61.3334 41.1559 61.3334 42.667V50.667C61.3334 51.4225 61.0779 52.0559 60.5667 52.567C60.0556 53.0781 59.4223 53.3337 58.6667 53.3337H45.3334C44.5779 53.3337 43.9445 53.0781 43.4334 52.567C42.9223 52.0559 42.6667 51.4225 42.6667 50.667V47.267C41.1112 48.3781 39.4334 49.2225 37.6334 49.8003C35.8334 50.3781 33.9556 50.667 32.0001 50.667C30.089 50.667 28.2223 50.367 26.4001 49.767C24.5779 49.167 22.889 48.3114 21.3334 47.2003V50.667C21.3334 51.4225 21.0779 52.0559 20.5667 52.567C20.0556 53.0781 19.4223 53.3337 18.6667 53.3337H5.33341C4.57786 53.3337 3.94453 53.0781 3.43341 52.567C2.9223 52.0559 2.66675 51.4225 2.66675 50.667ZM32.0001 42.667C30.3112 42.667 28.7112 42.2781 27.2001 41.5003C25.689 40.7225 24.4223 39.6448 23.4001 38.267C22.6445 37.1559 21.7001 36.2781 20.5667 35.6337C19.4334 34.9892 18.2001 34.667 16.8667 34.667C17.8445 33.0225 19.9112 31.7225 23.0667 30.767C26.2223 29.8114 29.2001 29.3337 32.0001 29.3337C34.8001 29.3337 37.7779 29.8114 40.9334 30.767C44.089 31.7225 46.1556 33.0225 47.1334 34.667C45.8445 34.667 44.6223 34.9892 43.4668 35.6337C42.3112 36.2781 41.3556 37.1559 40.6001 38.267C39.6223 39.6892 38.3779 40.7781 36.8667 41.5337C35.3556 42.2892 33.7334 42.667 32.0001 42.667ZM10.6667 34.667C8.44453 34.667 6.55564 33.8892 5.00008 32.3337C3.44453 30.7781 2.66675 28.8892 2.66675 26.667C2.66675 24.4003 3.44453 22.5003 5.00008 20.967C6.55564 19.4337 8.44453 18.667 10.6667 18.667C12.9334 18.667 14.8334 19.4337 16.3667 20.967C17.9001 22.5003 18.6667 24.4003 18.6667 26.667C18.6667 28.8892 17.9001 30.7781 16.3667 32.3337C14.8334 33.8892 12.9334 34.667 10.6667 34.667ZM53.3334 34.667C51.1112 34.667 49.2223 33.8892 47.6667 32.3337C46.1112 30.7781 45.3334 28.8892 45.3334 26.667C45.3334 24.4003 46.1112 22.5003 47.6667 20.967C49.2223 19.4337 51.1112 18.667 53.3334 18.667C55.6001 18.667 57.5001 19.4337 59.0334 20.967C60.5668 22.5003 61.3334 24.4003 61.3334 26.667C61.3334 28.8892 60.5668 30.7781 59.0334 32.3337C57.5001 33.8892 55.6001 34.667 53.3334 34.667ZM32.0001 26.667C29.7779 26.667 27.889 25.8892 26.3334 24.3337C24.7779 22.7781 24.0001 20.8892 24.0001 18.667C24.0001 16.4003 24.7779 14.5003 26.3334 12.967C27.889 11.4337 29.7779 10.667 32.0001 10.667C34.2667 10.667 36.1667 11.4337 37.7001 12.967C39.2334 14.5003 40.0001 16.4003 40.0001 18.667C40.0001 20.8892 39.2334 22.7781 37.7001 24.3337C36.1667 25.8892 34.2667 26.667 32.0001 26.667Z" />
</svg>