<svg width="64" height="64" viewBox="0 0 64 64" fill="none" xmlns="http://www.w3.org/2000/svg">
    <path
        d="M10.667 50.6663V26.6663C10.667 25.8219 10.8559 25.0219 11.2337 24.2663C11.6114 23.5108 12.1337 22.8886 12.8003 22.3997L28.8003 10.3997C29.7337 9.68856 30.8003 9.33301 32.0003 9.33301C33.2003 9.33301 34.267 9.68856 35.2003 10.3997L51.2003 22.3997C51.867 22.8886 52.3892 23.5108 52.767 24.2663C53.1448 25.0219 53.3337 25.8219 53.3337 26.6663V50.6663C53.3337 52.133 52.8114 53.3886 51.767 54.433C50.7225 55.4775 49.467 55.9997 48.0003 55.9997H40.0003C39.2448 55.9997 38.6114 55.7441 38.1003 55.233C37.5892 54.7219 37.3337 54.0886 37.3337 53.333V39.9997C37.3337 39.2441 37.0781 38.6108 36.567 38.0997C36.0559 37.5886 35.4225 37.333 34.667 37.333H29.3337C28.5781 37.333 27.9448 37.5886 27.4337 38.0997C26.9225 38.6108 26.667 39.2441 26.667 39.9997V53.333C26.667 54.0886 26.4114 54.7219 25.9003 55.233C25.3892 55.7441 24.7559 55.9997 24.0003 55.9997H16.0003C14.5337 55.9997 13.2781 55.4775 12.2337 54.433C11.1892 53.3886 10.667 52.133 10.667 50.6663Z" />
</svg>