<svg width="64" height="64" viewBox="0 0 64 64" fill="none" xmlns="http://www.w3.org/2000/svg">
    <path
        d="M25.9331 22.2663L30.4665 14.733L26.5331 8.19967C25.9998 7.31079 25.2331 6.86634 24.2331 6.86634C23.2331 6.86634 22.4665 7.31079 21.9331 8.19967L16.7998 16.7997C16.4443 17.4219 16.3443 18.0997 16.4998 18.833C16.6554 19.5663 17.0443 20.1108 17.6665 20.4663L22.2665 23.1997C22.8887 23.5552 23.5665 23.6441 24.2998 23.4663C25.0331 23.2886 25.5776 22.8886 25.9331 22.2663ZM50.3331 42.6663L45.7998 35.133C45.3998 34.5108 45.2998 33.833 45.4998 33.0997C45.6998 32.3663 46.1109 31.8219 46.7331 31.4663L51.3998 28.7997C52.022 28.4441 52.6887 28.3552 53.3998 28.533C54.1109 28.7108 54.6443 29.1108 54.9998 29.733L57.9331 34.5997C58.422 35.3552 58.6887 36.1997 58.7331 37.133C58.7776 38.0663 58.5776 38.933 58.1331 39.733C57.6887 40.6219 57.0331 41.333 56.1665 41.8663C55.2998 42.3997 54.3554 42.6663 53.3331 42.6663H50.3331ZM40.3998 59.0663L33.8665 52.533C33.3331 51.9997 33.0665 51.3775 33.0665 50.6663C33.0665 49.9552 33.3331 49.333 33.8665 48.7997L40.3998 42.2663C40.8442 41.8219 41.3331 41.7108 41.8665 41.933C42.3998 42.1552 42.6665 42.5775 42.6665 43.1997V45.333H55.3331L51.4665 53.0663C50.9776 53.9552 50.3109 54.6663 49.4665 55.1997C48.622 55.733 47.6887 55.9997 46.6665 55.9997H42.6665V58.133C42.6665 58.7552 42.3998 59.1775 41.8665 59.3997C41.3331 59.6219 40.8442 59.5108 40.3998 59.0663ZM16.8665 55.9997C15.9776 55.9997 15.1665 55.7663 14.4331 55.2997C13.6998 54.833 13.1554 54.2219 12.7998 53.4663C12.4443 52.7552 12.2776 52.0108 12.2998 51.233C12.322 50.4552 12.5331 49.733 12.9331 49.0663L15.1998 45.333H23.9998C24.7554 45.333 25.3887 45.5886 25.8998 46.0997C26.4109 46.6108 26.6665 47.2441 26.6665 47.9997V53.333C26.6665 54.0886 26.4109 54.7219 25.8998 55.233C25.3887 55.7441 24.7554 55.9997 23.9998 55.9997H16.8665ZM10.2665 48.3997L5.93314 39.733C5.53314 38.933 5.34425 38.0775 5.36648 37.1663C5.3887 36.2552 5.64425 35.3997 6.13314 34.5997L7.19981 32.7997L5.39981 31.733C4.91092 31.4219 4.71092 30.9663 4.79981 30.3663C4.8887 29.7663 5.22203 29.3997 5.79981 29.2663L14.6665 27.0663C15.3776 26.8886 16.0554 26.9886 16.6998 27.3663C17.3443 27.7441 17.7554 28.2886 17.9331 28.9997L20.1331 37.933C20.2665 38.5108 20.0887 38.9775 19.5998 39.333C19.1109 39.6886 18.622 39.7108 18.1331 39.3997L16.3331 38.2663L10.2665 48.3997ZM43.6665 24.933L34.7998 22.733C34.222 22.5997 33.8998 22.233 33.8331 21.633C33.7665 21.033 33.9776 20.5775 34.4665 20.2663L36.2665 19.1997L27.9331 5.33301H37.3331C38.2665 5.33301 39.1443 5.56634 39.9665 6.03301C40.7887 6.49967 41.4443 7.13301 41.9331 7.93301L45.3998 13.733L47.1331 12.6663C47.622 12.3552 48.1109 12.3775 48.5998 12.733C49.0887 13.0886 49.2665 13.5552 49.1331 14.133L46.9331 22.9997C46.7554 23.7108 46.3442 24.2552 45.6998 24.633C45.0554 25.0108 44.3776 25.1108 43.6665 24.933Z" />
</svg>