<svg width="1000" height="1000" viewBox="0 0 1000 1000" fill="none" xmlns="http://www.w3.org/2000/svg">
<path d="M668.369 555.224C728.204 555.224 776.709 547.571 776.709 538.132C776.709 528.692 728.204 521.04 668.369 521.04C608.534 521.04 560.029 528.692 560.029 538.132C560.029 547.571 608.534 555.224 668.369 555.224Z" fill="#005F55"/>
<path d="M368.939 818.57C363.315 820.395 357.74 822.376 352.057 823.977C348.601 824.953 345.076 824.924 342.352 821.869C342.049 818.16 341.747 814.46 341.444 810.761C348.493 812.176 355.543 813.562 362.534 810.517C363.813 813.884 368.959 814.167 368.939 818.579V818.57Z" fill="#EE9171"/>
<path d="M608.662 347.253C598.928 350.718 595.618 360.577 593.597 366.589C590.414 376.058 591.273 391.939 599.455 397.698C604.894 401.534 608.135 402.481 605.343 410.397C599.562 426.777 591.976 442.355 583.833 457.671C573.571 476.968 569.714 499.253 575.807 520.484C579.214 532.353 586.166 547.434 596.584 554.98C602.394 559.187 610.576 558.933 617.362 560.114C625.593 561.549 633.756 563.179 642.094 563.901C658.546 565.326 675.33 563.277 689.136 553.554C723.164 529.591 724.452 477.896 702.357 445.987C684.792 420.608 662.452 397.825 639.995 376.751C640.141 375.931 642.348 361.709 631.705 352.455C631.256 352.065 620.516 343.026 608.662 347.243V347.253Z" fill="#073E39"/>
<path d="M595.657 366.629C595.159 366.209 594.661 365.789 594.163 365.379C592.796 365.243 591.429 365.106 590.062 364.969L589.906 365.467C589.906 365.467 589.74 364.979 589.75 364.979C580.064 366.795 571.032 364.911 562.069 360.938C553.369 357.082 544.289 354.154 534.457 355.032C530.112 355.423 526.392 353.842 523.687 350.396C520.172 345.925 516.579 341.484 513.445 336.75C503.378 321.532 493.165 306.471 478.236 295.431C476.752 294.328 476.293 292.913 475.961 291.312C464.772 287.798 453.758 283.864 443.613 277.861C441.456 279.061 439.307 280.272 437.15 281.472C438.194 295.587 424.779 299.443 411.998 296.729C408.512 295.987 405.163 295.138 402.498 292.6C398.875 294.435 397.059 297.686 395.565 301.239C388.506 318.047 375.803 323.826 359.302 316.486C347.195 311.098 336.494 307.72 323.664 309.194C322.365 315.1 314.788 318.389 311.293 322.069L311.215 322.186C310.004 323.397 309.477 324.158 308.139 325.505C292.331 343.797 281.982 365.096 274.327 387.762C268.693 404.453 262.503 420.823 252.631 435.552C251.352 437.456 250.718 439.398 251.362 441.663C256.605 446.377 263.245 448.271 269.63 450.653C271.808 450.389 273.995 450.067 275.342 448.046C283.778 435.367 296.354 429.051 310.385 424.61C317.034 422.502 322.726 418.031 325.382 411.628C329.981 400.549 339.306 385.712 349.606 381.563C351.296 380.88 352.848 378.84 354.713 380.285C356.48 381.651 354.772 393.286 354.625 395.112C353.424 409.695 352.165 424.268 350.973 438.851C350.817 440.735 350.915 442.649 350.973 444.542C351.344 454.938 352.799 464.767 364.321 469.111C366.117 466.827 367.533 464.474 371.194 464.357C385.04 463.889 398.582 464.416 411.842 469.423C428.88 475.856 446.279 480.385 464.84 475.817C468.658 474.88 472.007 471.581 476.401 473.094C480.765 469.999 483.655 465.822 484.241 460.521C484.837 455.133 484.924 449.686 484.993 444.259C485.1 434.41 483.616 412.213 482.054 400.588C498.799 413.785 515.31 412.526 532.318 407.216C549.259 401.925 565.516 405.917 581.568 398.616C585.893 396.644 589.955 393.316 595.296 394.643C596.78 391.91 600.842 391.188 600.949 387.381C600.92 380.031 596.477 373.803 595.696 366.648L595.657 366.629Z" fill="#009662"/>
<path d="M475.385 291.253C464.196 287.739 453.182 283.805 443.037 277.812C448.476 273.537 452.792 268.441 454.94 261.726C458.464 255.83 459.958 249.505 458.972 242.652C460.476 225.434 456.228 218.425 440.948 212.705C439.552 212.178 438.019 211.612 437.716 213.369C436.085 222.886 427.523 222.847 421.098 225.102C407.673 229.807 406.052 232.462 410.748 245.698C411.93 250.998 413.101 256.308 414.283 261.609C414.107 266.069 413.931 270.53 413.746 274.991C410.66 281.414 404.031 285.465 401.941 292.551C398.319 294.386 396.503 297.647 395.009 301.2C387.949 318.008 375.247 323.787 358.746 316.447C346.638 311.059 340.643 309.555 327.813 311.029C323.898 311.478 318.548 309.575 315.072 307.935C310.404 305.739 302.759 300.409 301.324 295.236C299.811 289.808 300.66 283.054 302.71 277.871C304.819 272.551 309.985 265.513 315.501 263.317C318.694 262.048 322.229 261.277 325.001 259.393C328.673 256.904 333.682 254.444 330.294 248.324C330.469 242.613 329.952 237.049 328.751 231.388C325.861 217.693 332.09 207.454 345.935 204.808C359.917 202.144 365.639 197.136 376.711 187.902C391.269 175.769 408.229 171.298 427.064 178.121C429.954 179.166 433.508 178.522 436.749 178.483C451.151 178.336 461.452 185.315 469.068 196.97C470.415 199.03 471.655 201.294 471.118 203.852C468.912 214.277 473.345 222.662 479.144 230.656C490.793 246.713 490.9 249.729 479.877 265.913C476.723 270.54 476.02 275.743 477.465 280.711C478.705 284.986 477.709 288.061 475.395 291.253H475.385Z" fill="#073E39"/>
<path d="M510.857 819.517C514.675 819.702 517.116 822.513 520.006 824.407C527.944 829.629 536.097 834.353 545.285 837.135C548.497 838.112 551.475 839.908 550.675 844.085C549.923 847.99 546.681 847.912 543.645 848.029C531.157 848.517 518.756 847.56 506.464 845.384C502.656 844.71 498.877 844.427 495.157 845.188C488.42 846.555 480.707 848.917 477.113 841.137C473.696 833.739 475.024 825.744 481.263 819.429C484.719 824.007 489.172 825.324 494.669 823.763C500.039 822.24 505.458 820.922 510.857 819.507V819.517Z" fill="#C6C5C5"/>
<path d="M226.484 488.897C224.57 487.052 223.545 484.543 223.213 481.683C222.715 477.388 223.925 472.439 230.594 462.688C236.111 454.616 243.483 448.095 250.766 441.594C256.01 446.309 262.649 448.203 269.035 450.584C269.171 463.83 260.257 474.372 258.08 486.945C257.933 487.764 256.761 488.809 255.892 489.004C254.242 489.375 253.588 487.872 253.178 486.593C252.856 485.578 252.758 484.465 252.729 483.391C252.651 480.375 255.512 475.719 251.421 474.86C248.189 474.187 244.771 480.219 243.678 482.103C240.846 486.993 241.637 488.575 239.811 490.156C236.863 492.704 232.479 492.362 229.169 490.761C228.134 490.254 227.235 489.629 226.484 488.907V488.897Z" fill="#EE9171"/>
<path d="M510.857 819.517C505.458 820.922 500.039 822.25 494.669 823.772C489.172 825.334 484.719 824.007 481.263 819.438C483.792 817.018 479.935 813.309 482.981 810.995C489.787 812.684 496.69 811.991 503.554 811.815C505.985 814.382 508.416 816.949 510.857 819.517Z" fill="#EE9171"/>
<path d="M420.317 571.974C423.06 560.807 425.804 549.64 428.548 538.474C430.237 551.31 422.728 562.74 423.578 575.4C422.494 574.258 421.401 573.116 420.317 571.974Z" fill="#89AAB3"/>
<path d="M420.317 571.974C423.06 560.807 425.804 549.64 428.548 538.474C430.237 551.309 422.728 562.74 423.578 575.4C434.289 611.145 447.783 645.631 469.117 676.594C469.712 677.121 470.308 677.658 470.904 678.185H470.923C471.226 677.833 471.616 677.677 472.085 677.716C472.964 676.994 473.852 676.272 474.731 675.54C477.66 672.699 480.912 670.786 486.623 672.094C482.405 674.036 479.271 675.481 476.137 676.926C475.327 677.697 474.516 678.458 473.706 679.229C472.729 680.449 471.743 681.67 470.757 682.899C466.861 688.824 466.49 695.716 465.973 702.383C463.278 737.162 468.941 770.925 478.978 804.104C479.769 806.7 480.638 809.287 482.982 810.985C489.787 812.664 496.68 811.981 503.554 811.805C509.656 809.033 509.442 802.922 510.145 797.866C517.712 743.409 522.926 688.99 513.767 634.016C506.493 590.344 499.971 546.575 486.897 504.144C483.655 493.631 479.525 483.382 475.805 473.015C471.411 471.502 468.062 474.802 464.245 475.739C445.683 480.307 428.284 475.787 411.246 469.345C397.987 464.338 384.434 463.801 370.599 464.279C366.937 464.406 365.522 466.749 363.725 469.033C352.438 487.93 344.5 507.911 343.094 530.196C340.946 564.233 346.736 599.246 342.694 633.118L340.731 702.881C335.556 732.271 336.308 761.779 338.817 791.336C339.276 796.724 339.022 805.656 341.434 810.741C348.288 812.908 355.152 813.299 362.417 811.034C364.194 809.98 364.653 806.515 365.258 804.689C371.107 786.885 377.414 769.217 382.726 751.257C389.053 729.86 394.394 708.249 393.319 685.554" fill="#073E39"/>
<path d="M368.939 818.57C375.266 817.642 379.836 821.83 384.337 824.836C391.181 829.405 398.426 831.279 406.354 831.474C408.991 831.542 411.285 831.884 412.213 834.715C413.082 837.36 411.988 839.468 410.152 841.303C407.057 844.398 403.103 845.52 398.973 845.325C380.91 844.466 362.846 844.017 344.773 844.671C343.973 844.7 343.065 844.7 342.391 844.359C338.554 842.387 337.324 838.512 337.197 834.861C337.031 830.039 337.216 822.464 342.157 819.429C344.871 822.494 348.601 824.954 352.057 823.977C357.74 822.377 363.325 820.395 368.939 818.57Z" fill="#C6C5C5"/>
<path d="M589.496 364.92L589.34 365.418C589.34 365.418 589.174 364.93 589.184 364.93C589.193 364.93 589.496 364.93 589.496 364.93V364.92Z" fill="#00515E"/>
<path d="M486.633 672.084C480.921 670.776 477.67 672.689 474.741 675.53C473.862 676.262 472.983 676.984 472.095 677.706C471.626 677.667 471.245 677.824 470.933 678.175C470.874 679.747 470.816 681.318 470.757 682.89C471.743 681.669 472.729 680.449 473.716 679.229C474.526 678.458 475.336 677.687 476.147 676.926C479.281 675.481 482.425 674.036 486.633 672.094V672.084Z" fill="#89AAB3"/>
<path d="M410.729 245.688C406.032 232.452 407.663 229.807 421.078 225.092C427.503 222.837 436.066 222.876 437.697 213.359C437.999 211.602 439.532 212.168 440.928 212.695C456.209 218.415 460.456 225.424 458.953 242.643C459.734 251.242 458.64 253.907 455.359 262.126C452.645 267.875 448.456 273.537 443.018 277.812C440.86 279.013 438.712 280.223 436.554 281.424C428.401 281.18 420.473 280.165 413.707 274.991C413.882 270.53 414.058 266.069 414.244 261.609" fill="#EC8C6B"/>
<path d="M413.726 274.981C420.483 280.155 428.421 281.17 436.574 281.414C437.618 295.528 424.203 299.384 411.422 296.67C407.936 295.929 404.587 295.079 401.922 292.542C404.021 285.445 410.641 281.404 413.726 274.981Z" fill="#E25D45"/>
<path d="M480.384 379.669C479.418 367.614 477.455 355.813 471.411 345.037C474.76 357.521 476.03 370.367 478.812 382.92C478.851 383.906 479.31 384.901 479.359 385.887C479.369 386.453 479.31 387.029 479.398 387.586C480.189 392.574 481.478 395.531 481.478 400.529C483.88 392.915 480.697 387.303 480.394 379.679L480.384 379.669Z" fill="#C0DECD"/>
<path d="M621.609 369.908C621.736 372.446 622.937 374.301 622.4 376.78C621.863 379.26 620.75 381.671 618.895 383.408C616.21 385.917 612.373 386.727 608.711 387.069C605.958 387.322 603.185 387.381 600.431 387.244C600.168 380.636 596.604 374.633 595.296 368.151C595.208 367.732 595.139 367.292 595.247 366.873C595.384 366.346 595.803 365.936 596.213 365.565C602.999 359.454 611.972 356.155 618.612 349.888C619.598 348.951 620.604 347.917 621.922 347.585C623.24 347.253 624.939 348.014 625.007 349.371C625.046 350.103 624.617 350.767 624.168 351.343C623.045 352.787 621.697 354.037 620.653 355.54C619.618 357.043 618.905 358.908 619.305 360.684L621.609 369.899V369.908Z" fill="#EC8C6B"/>
<path d="M647.679 370.289C647.337 369.225 646.654 368.249 644.447 368.288C646.253 367.029 646.322 366.111 645.98 365.037C645.746 364.305 645.423 363.612 644.232 363.398C645.267 362.431 645.257 361.67 644.994 360.869C644.681 359.913 643.93 359.142 642.084 359.073C642.846 358.195 642.621 357.531 642.367 356.75C641.772 354.905 638.188 354.417 634.361 355.657C630.534 356.897 627.907 359.386 628.503 361.231C628.727 361.933 629.391 362.431 630.329 362.724C628.532 363.973 627.556 365.34 627.907 366.404C628.142 367.136 628.962 367.605 630.163 367.829C629.128 368.795 628.639 369.772 628.893 370.582C629.235 371.646 630.836 372.183 633.033 372.144C631.227 373.403 630.241 374.769 630.582 375.833C631.178 377.678 635.484 377.932 640.21 376.409C644.935 374.886 648.275 372.153 647.679 370.318V370.289Z" fill="#EC8C6B"/>
<path d="M568.962 541.285C572.604 542.378 576.266 543.384 580.054 544.096C585.463 545.111 590.912 545.96 596.36 546.751C597.034 546.849 597.707 546.966 598.381 547.044C630.397 550.353 662.442 553.057 694.663 550.119C722.598 550.763 749.976 547.376 776.582 538.581C776.582 550.597 776.358 561.334 775.918 572.667C774.122 618.827 771.759 664.959 769.601 711.1C767.541 755.083 765.402 799.057 763.528 843.041C763.323 847.853 761.585 850.215 757.22 852.051C744.703 857.312 731.414 858.756 718.204 859.938C678.797 863.461 639.253 864.106 600.226 857.097C568.172 851.338 573.727 853.202 572.526 826.681C568.836 745.771 565.252 664.851 561.649 583.941L560.019 538.581C563.026 539.46 565.984 540.397 568.943 541.285H568.962Z" fill="#009662"/>
<path d="M664.844 662.421C670.058 662.391 675.282 662.274 680.496 662.352C684.684 662.421 687.028 665.242 688.922 668.521C691.548 673.06 691.519 673.08 695.864 670.2C696.157 670.005 696.43 669.781 696.909 669.439C697.495 670.435 697.251 671.167 696.938 672.065C695.141 677.297 693.384 682.538 691.753 687.829C691.226 689.527 690.299 689.957 688.717 689.605C682.546 688.239 676.365 686.892 670.156 685.535C670.468 684.657 671.21 684.344 671.952 683.934C674.777 682.385 675.331 680.248 673.612 677.521C672.167 675.227 670.751 672.914 669.326 670.62C667.842 667.887 666.348 665.164 664.864 662.43L664.844 662.421Z" fill="#AFD196"/>
<path d="M639.067 721.544C636.763 717.649 634.439 713.774 632.174 709.86C629.167 704.677 630.778 699.991 634.019 695.667C635.289 693.978 634.898 693.295 633.219 692.524C631.832 691.89 630.553 691.04 628.63 689.947C635.582 688.473 641.889 687.116 648.206 685.799C649.398 685.555 650.345 685.828 650.774 687.175C652.766 693.344 654.787 699.494 656.877 705.877C654.738 705.311 653.332 703.974 651.643 703.164C651.389 703.047 650.833 702.09 650.208 703.261C648.245 706.922 645.678 710.25 644.174 714.165C642.026 716.312 641.352 719.475 639.077 721.534L639.067 721.544Z" fill="#AFD196"/>
<path d="M703.509 714.301C700.932 719.192 698.491 724.16 695.024 728.504C693.013 731.022 690.318 731.676 687.155 731.588C681.15 731.422 681.15 731.539 681.082 737.533C681.082 737.806 681.052 738.089 681.003 738.821C678.894 736.586 676.961 734.604 675.106 732.545C672.655 729.812 670.302 727 667.861 724.258C667.187 723.496 666.689 722.832 667.539 721.886C671.816 717.083 676.082 712.271 680.359 707.478C680.447 707.381 680.662 707.381 681.072 707.273C681.072 707.849 681.072 708.366 681.072 708.884C681.111 712.463 682.881 714.249 686.383 714.243C689.078 714.243 691.783 714.213 694.478 714.194C697.485 714.233 700.492 714.272 703.5 714.301H703.509Z" fill="#AFD196"/>
<path d="M703.509 714.301C700.502 714.262 697.494 714.223 694.487 714.194C691.812 709.401 689.195 704.56 686.413 699.826C685.456 698.195 685.592 697.434 687.34 696.516C691.353 694.418 695.229 692.056 699.164 689.82C699.984 689.352 700.873 689.127 701.42 690.181C703.353 693.861 705.833 697.239 707.385 701.133C709.162 705.575 706.575 709.001 704.778 712.613C704.466 713.237 703.929 713.745 703.489 714.311L703.509 714.301Z" fill="#7EB984"/>
<path d="M664.844 662.421C666.328 665.154 667.822 667.877 669.306 670.61C666.211 675.159 663.575 679.981 660.929 684.784C660.275 685.984 659.718 686.502 658.361 685.672C654.192 683.134 649.964 680.674 645.756 678.195C645.16 677.843 644.35 677.804 645.043 676.672C647.103 673.275 648.831 669.664 651.057 666.394C653.069 663.446 656.086 661.962 659.835 662.294C661.495 662.44 663.175 662.372 664.844 662.411V662.421Z" fill="#7EB984"/>
<path d="M639.067 721.544C641.342 719.484 642.016 716.322 644.164 714.174C649.651 714.194 655.148 714.282 660.636 714.204C662.247 714.184 662.676 714.662 662.647 716.234C662.549 720.685 662.54 725.146 662.647 729.597C662.686 731.217 662.139 731.578 660.597 731.578C657.931 731.578 655.178 731.676 652.502 731.598C646.634 731.598 643.041 729.333 640.591 724.433C640.102 723.467 639.575 722.51 639.067 721.554V721.544Z" fill="#7EB984"/>
</svg>
