<svg viewBox="0 0 70 14" xmlns="http://www.w3.org/2000/svg">
    <path
        d="M48.5381 0C49.0904 6.58593e-09 49.5381 0.447715 49.5381 1C49.5381 1.01015 49.5364 1.0202 49.5361 1.03027C49.5368 1.04576 49.5391 1.0615 49.5391 1.07715V4.92285C49.5391 4.94873 49.537 4.97458 49.5352 5H65.5C67.9853 5 70 7.01472 70 9.5C70 11.9853 67.9853 14 65.5 14H4.5C2.01472 14 0 11.9853 0 9.5C0 7.01472 2.01472 5 4.5 5H22.6191C22.6173 4.97457 22.6152 4.94874 22.6152 4.92285V1.07715C22.6152 1.0648 22.6158 1.05229 22.6162 1.04004C22.6157 1.02676 22.6152 1.01341 22.6152 1C22.6152 0.447766 23.063 8.14907e-05 23.6152 0H48.5381ZM24.7695 2V4.92285C24.7695 4.94874 24.7674 4.97457 24.7656 5H47.3887C47.3869 4.97456 47.3848 4.94874 47.3848 4.92285V2H24.7695Z"
    />
</svg>