<svg width="32" height="32" viewBox="0 0 32 32" fill="none" xmlns="http://www.w3.org/2000/svg">
    <path
        d="M15.9999 20.2667C18.3564 20.2667 20.2666 18.3565 20.2666 16.0001C20.2666 13.6436 18.3564 11.7334 15.9999 11.7334C13.6435 11.7334 11.7333 13.6436 11.7333 16.0001C11.7333 18.3565 13.6435 20.2667 15.9999 20.2667Z"
        fill="white" />
    <path
        d="M12 2.6665L9.55996 5.33317H5.33329C3.86663 5.33317 2.66663 6.53317 2.66663 7.99984V23.9998C2.66663 25.4665 3.86663 26.6665 5.33329 26.6665H26.6666C28.1333 26.6665 29.3333 25.4665 29.3333 23.9998V7.99984C29.3333 6.53317 28.1333 5.33317 26.6666 5.33317H22.44L20 2.6665H12ZM16 22.6665C12.32 22.6665 9.33329 19.6798 9.33329 15.9998C9.33329 12.3198 12.32 9.33317 16 9.33317C19.68 9.33317 22.6666 12.3198 22.6666 15.9998C22.6666 19.6798 19.68 22.6665 16 22.6665Z" />
</svg>