<svg width="64" height="64" viewBox="0 0 64 64" fill="none" xmlns="http://www.w3.org/2000/svg">
    <path
        d="M32 35.7339L24.2667 43.4672C23.7778 43.9561 23.1556 44.2005 22.4 44.2005C21.6445 44.2005 21.0223 43.9561 20.5334 43.4672C20.0445 42.9783 19.8 42.3561 19.8 41.6005C19.8 40.845 20.0445 40.2227 20.5334 39.7339L28.2667 32.0005L20.5334 24.3339C20.0445 23.845 19.8 23.2227 19.8 22.4672C19.8 21.7116 20.0445 21.0894 20.5334 20.6005C21.0223 20.1116 21.6445 19.8672 22.4 19.8672C23.1556 19.8672 23.7778 20.1116 24.2667 20.6005L32 28.3339L39.6667 20.6005C40.1556 20.1116 40.7778 19.8672 41.5334 19.8672C42.2889 19.8672 42.9112 20.1116 43.4001 20.6005C43.9334 21.1339 44.2001 21.7672 44.2001 22.5005C44.2001 23.2339 43.9334 23.845 43.4001 24.3339L35.6667 32.0005L43.4001 39.7339C43.8889 40.2227 44.1334 40.845 44.1334 41.6005C44.1334 42.3561 43.8889 42.9783 43.4001 43.4672C42.8667 44.0005 42.2334 44.2672 41.5001 44.2672C40.7667 44.2672 40.1556 44.0005 39.6667 43.4672L32 35.7339Z" />
</svg>