<svg width="20" height="20" viewBox="0 0 20 20" xmlns="http://www.w3.org/2000/svg">
    <path
        d="M3.33333 5.83341C3.09722 5.83341 2.89931 5.75355 2.73958 5.59383C2.57986 5.43411 2.5 5.23619 2.5 5.00008C2.5 4.76397 2.57986 4.56605 2.73958 4.40633C2.89931 4.24661 3.09722 4.16675 3.33333 4.16675H16.6667C16.9028 4.16675 17.1007 4.24661 17.2604 4.40633C17.4201 4.56605 17.5 4.76397 17.5 5.00008C17.5 5.23619 17.4201 5.43411 17.2604 5.59383C17.1007 5.75355 16.9028 5.83341 16.6667 5.83341H3.33333ZM3.33333 15.8334C3.09722 15.8334 2.89931 15.7536 2.73958 15.5938C2.57986 15.4341 2.5 15.2362 2.5 15.0001C2.5 14.764 2.57986 14.5661 2.73958 14.4063C2.89931 14.2466 3.09722 14.1667 3.33333 14.1667H16.6667C16.9028 14.1667 17.1007 14.2466 17.2604 14.4063C17.4201 14.5661 17.5 14.764 17.5 15.0001C17.5 15.2362 17.4201 15.4341 17.2604 15.5938C17.1007 15.7536 16.9028 15.8334 16.6667 15.8334H3.33333ZM3.33333 10.8334C3.09722 10.8334 2.89931 10.7536 2.73958 10.5938C2.57986 10.4341 2.5 10.2362 2.5 10.0001C2.5 9.76397 2.57986 9.56605 2.73958 9.40633C2.89931 9.24661 3.09722 9.16675 3.33333 9.16675H16.6667C16.9028 9.16675 17.1007 9.24661 17.2604 9.40633C17.4201 9.56605 17.5 9.76397 17.5 10.0001C17.5 10.2362 17.4201 10.4341 17.2604 10.5938C17.1007 10.7536 16.9028 10.8334 16.6667 10.8334H3.33333Z" />
</svg>