<svg width="64" height="64" viewBox="0 0 64 64" xmlns="http://www.w3.org/2000/svg">
    <path
        d="M29.3334 53.3337C28.5778 53.3337 27.9445 53.0781 27.4334 52.567C26.9223 52.0559 26.6667 51.4226 26.6667 50.667V34.667L11.2001 14.9337C10.5334 14.0448 10.4334 13.1114 10.9001 12.1337C11.3667 11.1559 12.1778 10.667 13.3334 10.667H50.6667C51.8223 10.667 52.6334 11.1559 53.1001 12.1337C53.5667 13.1114 53.4667 14.0448 52.8001 14.9337L37.3334 34.667V50.667C37.3334 51.4226 37.0778 52.0559 36.5667 52.567C36.0556 53.0781 35.4223 53.3337 34.6667 53.3337H29.3334Z"
    />
</svg>