<svg width="64" height="64" viewBox="0 0 64 64" fill="none" xmlns="http://www.w3.org/2000/svg">
    <path
        d="M16.0002 55.999C15.2446 55.999 14.6113 55.7434 14.1002 55.2323C13.5891 54.7212 13.3335 54.0878 13.3335 53.3323V13.3323C13.3335 12.5767 13.5891 11.9434 14.1002 11.4323C14.6113 10.9212 15.2446 10.6656 16.0002 10.6656H27.0002C27.7557 10.6656 28.3891 10.9212 28.9002 11.4323C29.4113 11.9434 29.6668 12.5767 29.6668 13.3323C29.6668 14.0878 29.4113 14.7212 28.9002 15.2323C28.3891 15.7434 27.7557 15.999 27.0002 15.999H18.6668V31.999H35.8002C36.4224 31.999 36.9779 32.199 37.4668 32.599C37.9557 32.999 38.2668 33.5101 38.4002 34.1323L39.0668 37.3323H48.0002V36.1323C48.0002 35.3767 48.2557 34.7434 48.7668 34.2323C49.2779 33.7212 49.9113 33.4656 50.6668 33.4656C51.4224 33.4656 52.0557 33.7212 52.5668 34.2323C53.0779 34.7434 53.3335 35.3767 53.3335 36.1323V39.999C53.3335 40.7545 53.0779 41.3878 52.5668 41.899C52.0557 42.4101 51.4224 42.6656 50.6668 42.6656H36.8668C36.2446 42.6656 35.6891 42.4656 35.2002 42.0656C34.7113 41.6656 34.4002 41.1545 34.2668 40.5323L33.6002 37.3323H18.6668V53.3323C18.6668 54.0878 18.4113 54.7212 17.9002 55.2323C17.3891 55.7434 16.7557 55.999 16.0002 55.999ZM48.0002 2.26562C51.6891 2.26562 54.8335 3.56562 57.4335 6.16563C60.0335 8.76562 61.3335 11.9101 61.3335 15.599C61.3335 19.2878 60.0335 22.4323 57.4335 25.0323C54.8335 27.6323 51.6891 28.9323 48.0002 28.9323C44.3113 28.9323 41.1668 27.6323 38.5668 25.0323C35.9668 22.4323 34.6668 19.2878 34.6668 15.599C34.6668 11.9101 35.9668 8.76562 38.5668 6.16563C41.1668 3.56562 44.3113 2.26562 48.0002 2.26562ZM46.0668 15.9323L44.8668 14.7323C44.4668 14.3323 44.0002 14.1434 43.4668 14.1656C42.9335 14.1878 42.4668 14.399 42.0668 14.799C41.6668 15.199 41.4668 15.6656 41.4668 16.199C41.4668 16.7323 41.6668 17.199 42.0668 17.599L44.2002 19.7323C44.7335 20.2656 45.3557 20.5323 46.0668 20.5323C46.7779 20.5323 47.4002 20.2656 47.9335 19.7323L53.9335 13.799C54.3335 13.399 54.5335 12.9212 54.5335 12.3656C54.5335 11.8101 54.3335 11.3323 53.9335 10.9323C53.5335 10.5323 53.0668 10.3434 52.5335 10.3656C52.0002 10.3878 51.5335 10.5767 51.1335 10.9323L46.0668 15.9323Z" />
</svg>