<svg width="24" height="24" viewBox="0 0 24 24" fill="none" xmlns="http://www.w3.org/2000/svg">
    <path
        d="M6 21.0001C5.71667 21.0001 5.47917 20.9043 5.2875 20.7126C5.09583 20.5209 5 20.2834 5 20.0001V5.0001C5 4.71676 5.09583 4.47926 5.2875 4.2876C5.47917 4.09593 5.71667 4.0001 6 4.0001H10.125C10.4083 4.0001 10.6417 4.11676 10.825 4.3501C11.0083 4.58343 11.0833 4.84176 11.05 5.1251C11.0333 5.2751 11.0208 5.42093 11.0125 5.5626C11.0042 5.70426 11 5.8501 11 6.0001C11.0333 7.91676 11.7292 9.5376 13.0875 10.8626C14.4458 12.1876 16.0833 12.8501 18 12.8501C18.15 12.8501 18.3 12.8459 18.45 12.8376C18.6 12.8293 18.7417 12.8168 18.875 12.8001C19.175 12.7668 19.4375 12.8418 19.6625 13.0251C19.8875 13.2084 20 13.4418 20 13.7251V15.0001C20 15.2834 19.9042 15.5209 19.7125 15.7126C19.5208 15.9043 19.2833 16.0001 19 16.0001H13.825C13.5917 16.0001 13.3833 15.9251 13.2 15.7751C13.0167 15.6251 12.9 15.4334 12.85 15.2001L12.6 14.0001H7V20.0001C7 20.2834 6.90417 20.5209 6.7125 20.7126C6.52083 20.9043 6.28333 21.0001 6 21.0001ZM18 0.850098C19.3833 0.850098 20.5625 1.3376 21.5375 2.3126C22.5125 3.2876 23 4.46676 23 5.8501C23 7.23343 22.5125 8.4126 21.5375 9.3876C20.5625 10.3626 19.3833 10.8501 18 10.8501C16.6167 10.8501 15.4375 10.3626 14.4625 9.3876C13.4875 8.4126 13 7.23343 13 5.8501C13 4.46676 13.4875 3.2876 14.4625 2.3126C15.4375 1.3376 16.6167 0.850098 18 0.850098ZM17.275 5.9751L16.825 5.5251C16.675 5.3751 16.5 5.30426 16.3 5.3126C16.1 5.32093 15.925 5.4001 15.775 5.5501C15.625 5.7001 15.55 5.8751 15.55 6.0751C15.55 6.2751 15.625 6.4501 15.775 6.6001L16.575 7.4001C16.775 7.6001 17.0083 7.7001 17.275 7.7001C17.5417 7.7001 17.775 7.6001 17.975 7.4001L20.225 5.1751C20.375 5.0251 20.45 4.84593 20.45 4.6376C20.45 4.42926 20.375 4.2501 20.225 4.1001C20.075 3.9501 19.9 3.87926 19.7 3.8876C19.5 3.89593 19.325 3.96676 19.175 4.1001L17.275 5.9751Z" />
</svg>