<svg width="64" height="64" viewBox="0 0 64 64" fill="none" xmlns="http://www.w3.org/2000/svg">
    <path
        d="M31.9998 31.9997C34.8887 31.9997 37.8887 31.7663 40.9998 31.2997C44.111 30.833 46.9998 30.1775 49.6665 29.333C50.5554 28.9775 51.3887 29.0886 52.1665 29.6663C52.9443 30.2441 53.3332 30.9997 53.3332 31.933V50.9997C53.3332 52.1108 53.011 53.1219 52.3665 54.033C51.7221 54.9441 50.8887 55.5997 49.8665 55.9997C47.3332 56.8441 44.4998 57.4997 41.3665 57.9663C38.2332 58.433 35.111 58.6663 31.9998 58.6663C28.8887 58.6663 25.7665 58.433 22.6332 57.9663C19.4998 57.4997 16.6665 56.8441 14.1332 55.9997C13.1109 55.5997 12.2776 54.9441 11.6332 54.033C10.9887 53.1219 10.6665 52.1108 10.6665 50.9997V31.933C10.6665 30.9997 11.0554 30.2441 11.8332 29.6663C12.6109 29.0886 13.4443 28.9775 14.3332 29.333C16.9998 30.1775 19.8887 30.833 22.9998 31.2997C26.1109 31.7663 29.1109 31.9997 31.9998 31.9997ZM47.9998 50.6663V35.333C45.7776 35.9552 43.2109 36.4441 40.2998 36.7997C37.3887 37.1552 34.6221 37.333 31.9998 37.333C29.3776 37.333 26.6109 37.1552 23.6998 36.7997C20.7887 36.4441 18.2221 35.9552 15.9998 35.333V50.6663C18.2221 51.4663 20.7776 52.1108 23.6665 52.5997C26.5554 53.0886 29.3332 53.333 31.9998 53.333C34.6665 53.333 37.4443 53.0886 40.3332 52.5997C43.2221 52.1108 45.7776 51.4663 47.9998 50.6663ZM31.9998 5.33301C34.9332 5.33301 37.4443 6.37745 39.5332 8.46634C41.6221 10.5552 42.6665 13.0663 42.6665 15.9997C42.6665 18.933 41.6221 21.4441 39.5332 23.533C37.4443 25.6219 34.9332 26.6663 31.9998 26.6663C29.0665 26.6663 26.5554 25.6219 24.4665 23.533C22.3776 21.4441 21.3332 18.933 21.3332 15.9997C21.3332 13.0663 22.3776 10.5552 24.4665 8.46634C26.5554 6.37745 29.0665 5.33301 31.9998 5.33301ZM31.9998 21.333C33.4665 21.333 34.7221 20.8108 35.7665 19.7663C36.8109 18.7219 37.3332 17.4663 37.3332 15.9997C37.3332 14.533 36.8109 13.2775 35.7665 12.233C34.7221 11.1886 33.4665 10.6663 31.9998 10.6663C30.5332 10.6663 29.2776 11.1886 28.2332 12.233C27.1887 13.2775 26.6665 14.533 26.6665 15.9997C26.6665 17.4663 27.1887 18.7219 28.2332 19.7663C29.2776 20.8108 30.5332 21.333 31.9998 21.333Z" />
</svg>