<svg width="64" height="64" viewBox="0 0 64 64" fill="none" xmlns="http://www.w3.org/2000/svg">
    <path
        d="M32.0002 45.333C32.7557 45.333 33.3891 45.0775 33.9002 44.5663C34.4113 44.0552 34.6668 43.4219 34.6668 42.6663V31.9997C34.6668 31.2441 34.4113 30.6108 33.9002 30.0997C33.3891 29.5886 32.7557 29.333 32.0002 29.333C31.2446 29.333 30.6113 29.5886 30.1002 30.0997C29.5891 30.6108 29.3335 31.2441 29.3335 31.9997V42.6663C29.3335 43.4219 29.5891 44.0552 30.1002 44.5663C30.6113 45.0775 31.2446 45.333 32.0002 45.333ZM32.0002 23.9997C32.7557 23.9997 33.3891 23.7441 33.9002 23.233C34.4113 22.7219 34.6668 22.0886 34.6668 21.333C34.6668 20.5775 34.4113 19.9441 33.9002 19.433C33.3891 18.9219 32.7557 18.6663 32.0002 18.6663C31.2446 18.6663 30.6113 18.9219 30.1002 19.433C29.5891 19.9441 29.3335 20.5775 29.3335 21.333C29.3335 22.0886 29.5891 22.7219 30.1002 23.233C30.6113 23.7441 31.2446 23.9997 32.0002 23.9997ZM32.0002 58.6663C28.3113 58.6663 24.8446 57.9663 21.6002 56.5663C18.3557 55.1663 15.5335 53.2663 13.1335 50.8663C10.7335 48.4663 8.8335 45.6441 7.4335 42.3997C6.0335 39.1552 5.3335 35.6886 5.3335 31.9997C5.3335 28.3108 6.0335 24.8441 7.4335 21.5997C8.8335 18.3552 10.7335 15.533 13.1335 13.133C15.5335 10.733 18.3557 8.83301 21.6002 7.43301C24.8446 6.03301 28.3113 5.33301 32.0002 5.33301C35.689 5.33301 39.1557 6.03301 42.4002 7.43301C45.6446 8.83301 48.4668 10.733 50.8668 13.133C53.2668 15.533 55.1668 18.3552 56.5668 21.5997C57.9668 24.8441 58.6668 28.3108 58.6668 31.9997C58.6668 35.6886 57.9668 39.1552 56.5668 42.3997C55.1668 45.6441 53.2668 48.4663 50.8668 50.8663C48.4668 53.2663 45.6446 55.1663 42.4002 56.5663C39.1557 57.9663 35.689 58.6663 32.0002 58.6663ZM32.0002 53.333C37.9557 53.333 43.0002 51.2663 47.1335 47.133C51.2668 42.9997 53.3335 37.9552 53.3335 31.9997C53.3335 26.0441 51.2668 20.9997 47.1335 16.8663C43.0002 12.733 37.9557 10.6663 32.0002 10.6663C26.0446 10.6663 21.0002 12.733 16.8668 16.8663C12.7335 20.9997 10.6668 26.0441 10.6668 31.9997C10.6668 37.9552 12.7335 42.9997 16.8668 47.133C21.0002 51.2663 26.0446 53.333 32.0002 53.333Z" />
</svg>