<svg width="114" height="114" viewBox="0 0 114 114" fill="none" xmlns="http://www.w3.org/2000/svg">
    <path
        d="M45.8629 39.3784L53.88 26.0559L46.924 14.5018C45.9808 12.9298 44.625 12.1438 42.8565 12.1438C41.088 12.1438 39.7322 12.9298 38.789 14.5018L29.7108 29.7107C29.082 30.8111 28.9051 32.0098 29.1802 33.3066C29.4553 34.6035 30.1431 35.5664 31.2435 36.1952L39.3785 41.029C40.4789 41.6578 41.6775 41.815 42.9744 41.5006C44.2713 41.1862 45.2341 40.4788 45.8629 39.3784ZM89.0139 75.4555L80.9968 62.1329C80.2894 61.0325 80.1125 59.8339 80.4662 58.537C80.8199 57.2401 81.547 56.2773 82.6474 55.6485L90.9003 50.9325C92.0007 50.3037 93.1797 50.1465 94.4372 50.4609C95.6948 50.7753 96.638 51.4827 97.2668 52.5831L102.454 61.1897C103.319 62.5259 103.791 64.0193 103.869 65.6699C103.948 67.3205 103.594 68.8532 102.808 70.2679C102.022 71.8399 100.863 73.0975 99.33 74.0407C97.7974 74.9839 96.1271 75.4555 94.3193 75.4555H89.0139ZM71.447 104.459L59.8929 92.9045C58.9497 91.9613 58.4781 90.8609 58.4781 89.6034C58.4781 88.3458 58.9497 87.2454 59.8929 86.3022L71.447 74.7481C72.233 73.9621 73.0975 73.7656 74.0407 74.1586C74.9839 74.5516 75.4555 75.2983 75.4555 76.3987V80.1715H97.8563L91.0182 93.8477C90.1536 95.4197 88.9746 96.6773 87.4812 97.6205C85.9878 98.5637 84.3372 99.0353 82.5295 99.0353H75.4555V102.808C75.4555 103.908 74.9839 104.655 74.0407 105.048C73.0975 105.441 72.233 105.245 71.447 104.459ZM29.8287 99.0353C28.2567 99.0353 26.8222 98.6226 25.5254 97.7973C24.2285 96.972 23.2656 95.8913 22.6368 94.5551C22.008 93.2975 21.7133 91.981 21.7526 90.6055C21.7919 89.23 22.1652 87.9528 22.8726 86.7738L26.8812 80.1715H42.4438C43.78 80.1715 44.9001 80.6234 45.804 81.5273C46.7079 82.4312 47.1598 83.5512 47.1598 84.8874V94.3193C47.1598 95.6555 46.7079 96.7755 45.804 97.6794C44.9001 98.5833 43.78 99.0353 42.4438 99.0353H29.8287ZM18.1567 85.5948L10.4933 70.2679C9.78586 68.8532 9.45182 67.3401 9.49111 65.7288C9.53041 64.1176 9.98236 62.6045 10.847 61.1897L12.7333 58.0065L9.55006 56.1201C8.68547 55.5699 8.33178 54.7642 8.48897 53.7032C8.64617 52.6421 9.23567 51.9936 10.2575 51.7578L25.938 47.8672C27.1956 47.5528 28.3942 47.7296 29.5339 48.3977C30.6736 49.0658 31.4007 50.0286 31.7151 51.2862L35.6057 67.0847C35.8415 68.1065 35.5271 68.9318 34.6625 69.5606C33.7979 70.1893 32.9333 70.2286 32.0687 69.6785L28.8855 67.6742L18.1567 85.5948ZM77.224 44.0944L61.5435 40.2037C60.5217 39.9679 59.9518 39.3195 59.8339 38.2584C59.716 37.1973 60.0894 36.3917 60.954 35.8415L64.1372 33.9551L49.3999 9.43213H66.0236C67.6742 9.43213 69.2265 9.84478 70.6806 10.6701C72.1347 11.4954 73.294 12.6154 74.1586 14.0302L80.2894 24.2874L83.3547 22.401C84.2193 21.8508 85.0839 21.8901 85.9485 22.5189C86.8131 23.1477 87.1275 23.973 86.8917 24.9948L83.0011 40.6753C82.6867 41.9329 81.9596 42.8958 80.8199 43.5639C79.6802 44.2319 78.4816 44.4088 77.224 44.0944Z"
        fill="url(#paint0_linear_210_1173)" />
    <defs>
        <linearGradient id="paint0_linear_210_1173" x1="56.1663" y1="9.43213" x2="56.1663"
            y2="105.245" gradientUnits="userSpaceOnUse">
            <stop stop-color="white" stop-opacity="0.5" />
            <stop offset="1" stop-color="white" stop-opacity="0" />
        </linearGradient>
    </defs>
</svg>