<svg width="64" height="64" viewBox="0 0 64 64" fill="none" xmlns="http://www.w3.org/2000/svg">
    <path
        d="M28.8666 58.6663C27.6666 58.6663 26.6333 58.2663 25.7666 57.4663C24.8999 56.6663 24.3777 55.6886 24.1999 54.533L23.5999 50.133C23.0222 49.9108 22.4777 49.6441 21.9666 49.333C21.4555 49.0219 20.9555 48.6886 20.4666 48.333L16.3333 50.0663C15.2222 50.5552 14.1111 50.5997 12.9999 50.1997C11.8888 49.7997 11.0222 49.0886 10.3999 48.0663L7.26661 42.5997C6.64439 41.5774 6.46661 40.4886 6.73328 39.333C6.99995 38.1775 7.59995 37.2219 8.53328 36.4663L12.0666 33.7997C12.0222 33.4886 11.9999 33.1886 11.9999 32.8997V31.0997C11.9999 30.8108 12.0222 30.5108 12.0666 30.1997L8.53328 27.533C7.59995 26.7775 6.99995 25.8219 6.73328 24.6663C6.46661 23.5108 6.64439 22.4219 7.26661 21.3997L10.3999 15.933C11.0222 14.9108 11.8888 14.1997 12.9999 13.7997C14.1111 13.3997 15.2222 13.4441 16.3333 13.933L20.4666 15.6663C20.9555 15.3108 21.4666 14.9775 21.9999 14.6663C22.5333 14.3552 23.0666 14.0886 23.5999 13.8663L24.1999 9.46634C24.3777 8.31079 24.8999 7.33301 25.7666 6.53301C26.6333 5.73301 27.6666 5.33301 28.8666 5.33301H35.1333C36.3333 5.33301 37.3666 5.73301 38.2333 6.53301C39.0999 7.33301 39.6222 8.31079 39.7999 9.46634L40.3999 13.8663C40.9777 14.0886 41.5222 14.3552 42.0333 14.6663C42.5444 14.9775 43.0444 15.3108 43.5333 15.6663L47.6666 13.933C48.7777 13.4441 49.8888 13.3997 50.9999 13.7997C52.1111 14.1997 52.9777 14.9108 53.5999 15.933L56.7333 21.3997C57.3555 22.4219 57.5333 23.5108 57.2666 24.6663C56.9999 25.8219 56.3999 26.7775 55.4666 27.533L51.9333 30.1997C51.9777 30.5108 51.9999 30.8108 51.9999 31.0997V32.8997C51.9999 33.1886 51.9555 33.4886 51.8666 33.7997L55.3999 36.4663C56.3333 37.2219 56.9333 38.1775 57.1999 39.333C57.4666 40.4886 57.2888 41.5774 56.6666 42.5997L53.4666 48.0663C52.8444 49.0886 51.9777 49.7997 50.8666 50.1997C49.7555 50.5997 48.6444 50.5552 47.5333 50.0663L43.5333 48.333C43.0444 48.6886 42.5333 49.0219 41.9999 49.333C41.4666 49.6441 40.9333 49.9108 40.3999 50.133L39.7999 54.533C39.6222 55.6886 39.0999 56.6663 38.2333 57.4663C37.3666 58.2663 36.3333 58.6663 35.1333 58.6663H28.8666ZM29.3333 53.333H34.5999L35.5333 46.2663C36.9111 45.9108 38.1888 45.3886 39.3666 44.6997C40.5444 44.0108 41.6222 43.1774 42.5999 42.1997L49.1999 44.933L51.7999 40.3997L46.0666 36.0663C46.2888 35.4441 46.4444 34.7886 46.5333 34.0997C46.6222 33.4108 46.6666 32.7108 46.6666 31.9997C46.6666 31.2886 46.6222 30.5886 46.5333 29.8997C46.4444 29.2108 46.2888 28.5552 46.0666 27.933L51.7999 23.5997L49.1999 19.0663L42.5999 21.8663C41.6222 20.8441 40.5444 19.9886 39.3666 19.2997C38.1888 18.6108 36.9111 18.0886 35.5333 17.733L34.6666 10.6663H29.3999L28.4666 17.733C27.0888 18.0886 25.8111 18.6108 24.6333 19.2997C23.4555 19.9886 22.3777 20.8219 21.3999 21.7997L14.7999 19.0663L12.1999 23.5997L17.9333 27.8663C17.7111 28.533 17.5555 29.1997 17.4666 29.8663C17.3777 30.533 17.3333 31.2441 17.3333 31.9997C17.3333 32.7108 17.3777 33.3997 17.4666 34.0663C17.5555 34.733 17.7111 35.3997 17.9333 36.0663L12.1999 40.3997L14.7999 44.933L21.3999 42.133C22.3777 43.1552 23.4555 44.0108 24.6333 44.6997C25.8111 45.3886 27.0888 45.9108 28.4666 46.2663L29.3333 53.333ZM32.1333 41.333C34.7111 41.333 36.9111 40.4219 38.7333 38.5997C40.5555 36.7775 41.4666 34.5774 41.4666 31.9997C41.4666 29.4219 40.5555 27.2219 38.7333 25.3997C36.9111 23.5775 34.7111 22.6663 32.1333 22.6663C29.5111 22.6663 27.2999 23.5775 25.4999 25.3997C23.6999 27.2219 22.7999 29.4219 22.7999 31.9997C22.7999 34.5774 23.6999 36.7775 25.4999 38.5997C27.2999 40.4219 29.5111 41.333 32.1333 41.333Z" />
</svg>