<svg width="64" height="64" viewBox="0 0 64 64" fill="none" xmlns="http://www.w3.org/2000/svg">
    <path
        d="M45.3333 58.6663C43.111 58.6663 41.2221 57.8886 39.6666 56.333C38.111 54.7775 37.3333 52.8886 37.3333 50.6663C37.3333 50.3997 37.3999 49.7775 37.5333 48.7997L18.7999 37.8663C18.0888 38.533 17.2666 39.0552 16.3333 39.433C15.3999 39.8108 14.3999 39.9997 13.3333 39.9997C11.111 39.9997 9.22214 39.2219 7.66659 37.6663C6.11103 36.1108 5.33325 34.2219 5.33325 31.9997C5.33325 29.7775 6.11103 27.8886 7.66659 26.333C9.22214 24.7775 11.111 23.9997 13.3333 23.9997C14.3999 23.9997 15.3999 24.1886 16.3333 24.5663C17.2666 24.9441 18.0888 25.4663 18.7999 26.133L37.5333 15.1997C37.4444 14.8886 37.3888 14.5886 37.3666 14.2997C37.3444 14.0108 37.3333 13.6886 37.3333 13.333C37.3333 11.1108 38.111 9.2219 39.6666 7.66634C41.2221 6.11079 43.111 5.33301 45.3333 5.33301C47.5555 5.33301 49.4444 6.11079 50.9999 7.66634C52.5555 9.2219 53.3333 11.1108 53.3333 13.333C53.3333 15.5552 52.5555 17.4441 50.9999 18.9997C49.4444 20.5552 47.5555 21.333 45.3333 21.333C44.2666 21.333 43.2666 21.1441 42.3333 20.7663C41.3999 20.3886 40.5777 19.8663 39.8666 19.1997L21.1333 30.133C21.2221 30.4441 21.2777 30.7441 21.2999 31.033C21.3221 31.3219 21.3333 31.6441 21.3333 31.9997C21.3333 32.3552 21.3221 32.6775 21.2999 32.9663C21.2777 33.2552 21.2221 33.5552 21.1333 33.8663L39.8666 44.7997C40.5777 44.133 41.3999 43.6108 42.3333 43.233C43.2666 42.8552 44.2666 42.6663 45.3333 42.6663C47.5555 42.6663 49.4444 43.4441 50.9999 44.9997C52.5555 46.5552 53.3333 48.4441 53.3333 50.6663C53.3333 52.8886 52.5555 54.7775 50.9999 56.333C49.4444 57.8886 47.5555 58.6663 45.3333 58.6663ZM45.3333 53.333C46.0888 53.333 46.7221 53.0774 47.2333 52.5663C47.7444 52.0552 47.9999 51.4219 47.9999 50.6663C47.9999 49.9108 47.7444 49.2775 47.2333 48.7663C46.7221 48.2552 46.0888 47.9997 45.3333 47.9997C44.5777 47.9997 43.9444 48.2552 43.4333 48.7663C42.9221 49.2775 42.6666 49.9108 42.6666 50.6663C42.6666 51.4219 42.9221 52.0552 43.4333 52.5663C43.9444 53.0774 44.5777 53.333 45.3333 53.333ZM13.3333 34.6663C14.0888 34.6663 14.7221 34.4108 15.2333 33.8997C15.7444 33.3886 15.9999 32.7552 15.9999 31.9997C15.9999 31.2441 15.7444 30.6108 15.2333 30.0997C14.7221 29.5886 14.0888 29.333 13.3333 29.333C12.5777 29.333 11.9444 29.5886 11.4333 30.0997C10.9221 30.6108 10.6666 31.2441 10.6666 31.9997C10.6666 32.7552 10.9221 33.3886 11.4333 33.8997C11.9444 34.4108 12.5777 34.6663 13.3333 34.6663ZM45.3333 15.9997C46.0888 15.9997 46.7221 15.7441 47.2333 15.233C47.7444 14.7219 47.9999 14.0886 47.9999 13.333C47.9999 12.5775 47.7444 11.9441 47.2333 11.433C46.7221 10.9219 46.0888 10.6663 45.3333 10.6663C44.5777 10.6663 43.9444 10.9219 43.4333 11.433C42.9221 11.9441 42.6666 12.5775 42.6666 13.333C42.6666 14.0886 42.9221 14.7219 43.4333 15.233C43.9444 15.7441 44.5777 15.9997 45.3333 15.9997Z" />
</svg>