<svg width="12" height="12" viewBox="0 0 12 12" fill="none" xmlns="http://www.w3.org/2000/svg">
    <path
        d="M11.5 5.995L10.28 4.6L10.45 2.755L8.645 2.345L7.7 0.75L6 1.48L4.3 0.75L3.355 2.345L1.55 2.75L1.72 4.6L0.5 5.995L1.72 7.39L1.55 9.24L3.355 9.65L4.3 11.25L6 10.515L7.7 11.245L8.645 9.65L10.45 9.24L10.28 7.395L11.5 5.995ZM9.525 6.735L9.245 7.06L9.285 7.485L9.375 8.46L8.005 8.77L7.785 9.14L7.29 9.98L6.4 9.595L6 9.425L5.605 9.595L4.715 9.98L4.22 9.145L4 8.775L2.63 8.465L2.72 7.485L2.76 7.06L2.48 6.735L1.835 6L2.48 5.26L2.76 4.935L2.715 4.505L2.625 3.535L3.995 3.225L4.215 2.855L4.71 2.015L5.6 2.4L6 2.57L6.395 2.4L7.285 2.015L7.78 2.855L8 3.225L9.37 3.535L9.28 4.51L9.24 4.935L9.52 5.26L10.165 5.995L9.525 6.735Z"
        fill="#26413C" />
    <path d="M5.045 6.875L3.885 5.71L3.145 6.455L5.045 8.36L8.715 4.68L7.975 3.935L5.045 6.875Z"
        fill="#26413C" />
</svg>